<svg xmlns="http://www.w3.org/2000/svg" width="111" height="32" fill="#fff">
  <rect width="100%" height="100%" fill="#335fff" rx="4"/>
  <path d="M22.62 24 10 20.6 13.38 8 26 11.4zm-2.39-9.27-3.52-.97-.94 3.51 3.52.97zM36.31 20v-6.25h-2.22V12.3h5.94v1.45H37.8V20zm4.22 0v-5.8h1.4v.82l.18.06c.3-.63.85-1 1.53-1q.25 0 .5.06v1.43q-.33-.13-.85-.14c-.6 0-1.12.39-1.36.9V20zm5.53 2.21c-.4 0-.74-.09-1-.18v-1.28c.35.1.54.16.88.16.44 0 .84-.24 1.04-.81l.09-.26h-.36l-2.13-5.65h1.61l1.32 4h.18l1.32-4h1.6l-2.3 6.14c-.54 1.44-1.24 1.88-2.25 1.88M54.23 20v-5.8h1.41V20zm-.03-6.48v-1.47h1.47v1.47zM57.1 20v-5.8h1.4v.82l.18.06c.27-.56.8-1 1.66-1 1.27 0 1.97.88 1.97 2.19V20H60.9v-3.36c0-.88-.44-1.26-1.14-1.26a1.4 1.4 0 0 0-1.26.78V20zm9.41 0v-7.7h3.05c1.62 0 2.7.8 2.7 2.36 0 1.14-.64 1.88-1.52 2.21v.14L72.55 20h-1.74l-1.67-2.93h-1.13V20zm1.5-4.36h1.55c.7 0 1.18-.3 1.18-.97s-.48-.92-1.18-.92h-1.55zm7.87 4.47c-1.74 0-2.84-1.22-2.84-3.02 0-1.79 1.1-3 2.84-3 1.75 0 2.85 1.21 2.85 3 0 1.8-1.1 3.02-2.85 3.02m.02-1.3c.83 0 1.4-.63 1.4-1.72s-.57-1.71-1.4-1.71c-.84 0-1.43.63-1.43 1.71 0 1.1.59 1.72 1.43 1.72m7.1 1.3c-.8 0-1.24-.27-1.56-.66l-.18.06V20h-1.4v-7.81h1.4v2.83l.18.06c.28-.6.81-1 1.68-1 1.39 0 2.35 1.1 2.35 2.9 0 2.02-1.07 3.13-2.47 3.13m-.33-1.3c.75 0 1.37-.65 1.37-1.83 0-1.17-.62-1.6-1.38-1.6-.63 0-1.13.33-1.4.77v1.98c.28.36.67.68 1.41.68M86.6 20v-7.81H88v7.8zm5.38.1c-1.75 0-2.85-1.21-2.85-3 0-1.8 1.1-3.02 2.85-3.02s2.85 1.22 2.85 3.01c0 1.8-1.1 3.02-2.85 3.02m0-1.29c.84 0 1.42-.63 1.42-1.72s-.58-1.71-1.41-1.71c-.84 0-1.43.63-1.43 1.71 0 1.1.6 1.72 1.43 1.72M95.15 20l1.89-2.86V17l-1.9-2.82h1.66l1.12 1.83h.15l1.12-1.83h1.61L98.9 17v.13l1.9 2.86h-1.65l-1.12-1.83h-.16L96.74 20z"/>
</svg>