<svg xmlns="http://www.w3.org/2000/svg" width="84" height="32" fill="#fff">
  <rect width="100%" height="100%" fill="#5865f2" rx="4"/>
  <path d="M23.55 10.91a13 13 0 0 0-3.26-1l-.05.02a9 9 0 0 0-.41.83 12 12 0 0 0-3.66 0 8 8 0 0 0-.41-.83l-.05-.03q-1.7.3-3.26 1.01l-.02.02a13.5 13.5 0 0 0-2.36 9.1v.03l.02.02a13 13 0 0 0 4 2.02h.02l.03-.02q.46-.63.82-1.33l-.01-.06-.02-.01a9 9 0 0 1-1.25-.6l-.03-.04.02-.04.25-.2h.05a9.5 9.5 0 0 0 8.04 0h.06l.25.2v.08a8 8 0 0 1-1.26.6l-.02.07q.36.7.81 1.33l.06.02a13 13 0 0 0 4-2.02l.02-.04c.34-3.45-.56-6.45-2.36-9.1zm-8.2 7.31c-.8 0-1.44-.72-1.44-1.61S14.55 15 15.35 15s1.45.73 1.44 1.6c0 .9-.64 1.62-1.44 1.62m5.31 0c-.78 0-1.43-.72-1.43-1.61S19.86 15 20.66 15c.81 0 1.45.73 1.44 1.6 0 .9-.63 1.62-1.44 1.62M34.8 20v-7.7h2.54c2.53 0 4.06 1.17 4.06 3.85S39.86 20 37.33 20zm2.6-1.45c1.58 0 2.46-.75 2.46-2.4s-.88-2.4-2.45-2.4H36.3v4.8zM42.46 20v-5.8h1.4V20zm-.03-6.48v-1.47h1.47v1.47zm4.84 6.59a3.6 3.6 0 0 1-2.4-.9l.76-1c.46.4 1 .69 1.64.69q.88 0 .9-.57c0-.35-.23-.47-.7-.57l-.74-.16c-1-.2-1.59-.71-1.59-1.66 0-1.14.83-1.86 2.16-1.86q1.26 0 2.19.8l-.78.97a2.2 2.2 0 0 0-1.43-.56c-.4 0-.77.13-.77.5 0 .27.17.45.73.57l.82.18c.87.18 1.51.63 1.51 1.6 0 1.23-.9 1.97-2.3 1.97m5.9 0c-1.74 0-2.89-1.22-2.89-3.01s1.15-3.02 2.88-3.02c.9 0 1.79.38 2.28 1.03l-.94.94a1.8 1.8 0 0 0-1.37-.67c-.83 0-1.42.63-1.42 1.72s.59 1.71 1.42 1.71c.57 0 1.06-.28 1.37-.67l.94.95a2.9 2.9 0 0 1-2.28 1.02m5.76 0c-1.75 0-2.85-1.22-2.85-3.01s1.1-3.02 2.85-3.02 2.85 1.22 2.85 3.02-1.1 3.01-2.85 3.01m.01-1.3c.84 0 1.41-.62 1.41-1.71s-.57-1.72-1.4-1.72-1.44.63-1.44 1.72.6 1.71 1.43 1.71M62.88 20v-5.8h1.4v.82l.19.06c.3-.62.84-1 1.53-1q.25 0 .49.06v1.43a3 3 0 0 0-.85-.14c-.6 0-1.12.39-1.35.9V20zm6.52.11c-1.35 0-2.41-1.03-2.41-3.01 0-1.96 1.16-3.02 2.83-3.02.51 0 1.04.13 1.38.32v-2.2h1.4V20h-1.4v-.81l-.18-.07c-.32.7-.9.99-1.62.99m.4-1.3c.55 0 1.14-.25 1.4-.78v-2.35a2.4 2.4 0 0 0-1.24-.3c-.86 0-1.54.54-1.54 1.72 0 1.06.47 1.71 1.38 1.71"/>
</svg>