<svg xmlns="http://www.w3.org/2000/svg" width="81" height="32" fill="#fff">
  <rect width="100%" height="100%" fill="#000" rx="4"/>
  <path d="M18 8a8 8 0 0 0-2.53 15.59c.4.08.55-.17.55-.38L16 21.85c-2.23.48-2.7-1.08-2.7-1.08-.36-.92-.89-1.17-.89-1.17-.72-.5.06-.48.06-.48.8.05 1.22.82 1.22.82.72 1.22 1.88.87 2.33.67.08-.52.28-.87.51-1.07-1.78-.2-3.64-.9-3.64-3.96q.02-1.3.82-2.14a2.8 2.8 0 0 1 .07-2.12s.67-.22 2.2.82a7.7 7.7 0 0 1 4 0c1.52-1.04 2.19-.82 2.19-.82.43 1.1.16 1.91.08 2.12.5.56.82 1.27.82 2.14 0 3.08-1.87 3.75-3.65 3.95.28.24.54.73.54 1.48l-.01 2.19c0 .2.14.46.55.38A8 8 0 0 0 18 8m20.17 11.91c-2.05 0-3.84-1.27-3.84-3.96 0-2.46 1.7-3.96 3.78-3.96 1.2 0 2.31.5 2.98 1.45l-1.02.98c-.58-.7-1.14-.98-1.91-.98-1.34 0-2.3.88-2.3 2.51 0 1.67 1 2.53 2.3 2.53q.88-.01 1.43-.35v-1.06h-1.54v-1.36h3.03v3.19a4.6 4.6 0 0 1-2.91 1.01m4.18-.1v-5.82h1.41v5.81zm-.03-6.49v-1.47h1.47v1.47zm5.27 6.6c-1.26 0-2.02-.67-2.02-1.91v-2.82h-.94V14h.94v-1.42h1.41V14h1.63v1.2h-1.63v2.63c0 .5.35.8.93.8q.39 0 .82-.13v1.21c-.3.13-.73.21-1.14.21m2.19-.12v-7.7h1.5v3.03h3.34V12.1h1.5v7.7h-1.5v-3.22h-3.35v3.22zm9.66.11c-1.17 0-1.89-.87-1.89-2.14v-3.78h1.41v3.28c0 1 .4 1.34 1.03 1.34.52 0 1.04-.33 1.26-.78V14h1.4v5.81h-1.4v-.82l-.18-.07c-.32.6-.8 1-1.63 1m7.81 0c-.8 0-1.24-.26-1.56-.66l-.18.07v.48h-1.4V12h1.4v2.82l.18.06c.29-.6.81-1 1.68-1 1.39 0 2.36 1.1 2.36 2.9 0 2.02-1.08 3.13-2.48 3.13m-.33-1.3c.75 0 1.38-.65 1.38-1.82 0-1.18-.63-1.6-1.39-1.6-.63 0-1.13.32-1.4.76v1.98c.28.36.67.68 1.41.68"/>
</svg>