<svg xmlns="http://www.w3.org/2000/svg" width="162" height="32" fill="#fff">
  <rect width="100%" height="100%" fill="#000" rx="4"/>
  <path d="M11.6 14.66 13.38 8 26 11.38l-1.22 4.55-8.07-2.17-.57 2.12zm-.38 1.41 8.07 2.17.57-2.12 4.54 1.22L22.62 24 10 20.62zm26.95 4.04c-2.05 0-3.84-1.28-3.84-3.96 0-2.46 1.7-3.96 3.78-3.96 1.2 0 2.31.5 2.98 1.45l-1.02.98c-.58-.7-1.14-.98-1.91-.98-1.34 0-2.3.88-2.3 2.51 0 1.67 1 2.53 2.3 2.53q.88-.01 1.43-.35v-1.06h-1.54v-1.36h3.03v3.19a4.6 4.6 0 0 1-2.91 1.01m6.78 0c-1.77 0-2.93-1.21-2.93-3 0-1.8 1.16-3.03 2.8-3.03 1.79 0 2.68 1.23 2.68 2.95v.5h-4.06c.15.94.7 1.3 1.5 1.3.6 0 1.04-.18 1.5-.57l.85 1.01c-.62.59-1.5.84-2.34.84m-.12-4.84q-1.07 0-1.34 1.11h2.61c-.08-.7-.55-1.11-1.27-1.11m6.1 4.84c-1.25 0-2-.66-2-1.9v-2.82h-.95v-1.2h.94v-1.42h1.41v1.42h1.63v1.2h-1.63v2.63c0 .5.35.8.93.8q.39 0 .82-.13v1.21c-.3.13-.72.21-1.14.21m4.82-.11v-5.8h1.4V20zm-.03-6.48v-1.47h1.47v1.47zm5.26 6.59c-1.25 0-2.01-.66-2.01-1.9v-2.82h-.95v-1.2h.95v-1.42h1.4v1.42H62v1.2h-1.62v2.63c0 .5.35.8.92.8q.4 0 .83-.13v1.21a3 3 0 0 1-1.15.21m7.33 0c-1.75 0-2.85-1.22-2.85-3.01 0-1.8 1.1-3.02 2.85-3.02s2.85 1.22 2.85 3.02c0 1.79-1.1 3.01-2.85 3.01m.01-1.3c.84 0 1.41-.62 1.41-1.71 0-1.1-.57-1.72-1.4-1.72-.84 0-1.44.63-1.44 1.72s.6 1.71 1.43 1.71M72.28 20v-5.8h1.4v.82l.18.06c.28-.56.8-1 1.67-1 1.27 0 1.96.88 1.96 2.2V20h-1.4v-3.36c0-.87-.44-1.26-1.14-1.26a1.4 1.4 0 0 0-1.26.78V20zm12.75.11c-2.08 0-3.79-1.5-3.79-3.96s1.7-3.96 3.79-3.96c1.18 0 2.3.5 2.98 1.45l-1.03.98c-.58-.7-1.14-.98-1.91-.98-1.34 0-2.3.88-2.3 2.51s.96 2.5 2.3 2.5c.77 0 1.33-.27 1.91-.97l1.03.98a3.6 3.6 0 0 1-2.98 1.45m4-.11v-5.8h1.4v.82l.18.06c.31-.62.85-1 1.53-1q.26 0 .5.06v1.43q-.33-.12-.85-.13c-.6 0-1.12.38-1.35.89V20zm7.05.11c-1.77 0-2.92-1.21-2.92-3 0-1.8 1.15-3.03 2.8-3.03 1.78 0 2.67 1.23 2.67 2.95v.5h-4.06c.15.94.7 1.3 1.51 1.3.6 0 1.04-.18 1.5-.57l.84 1.01c-.62.59-1.5.84-2.34.84m-.12-4.84q-1.07 0-1.34 1.11h2.62c-.1-.7-.55-1.11-1.28-1.11m5.24 4.84c-.97 0-1.84-.6-1.84-1.83 0-1.1.8-1.82 2.35-1.82h1.34v-.2c0-.64-.5-.85-1.03-.85-.65 0-1.21.27-1.8.7l-.65-1.1c.7-.56 1.52-.93 2.52-.93 1.22 0 2.37.56 2.37 2.2V20h-1.41v-.66l-.18-.07c-.38.54-.9.84-1.67.84m-.43-1.93c0 .43.37.72.9.72a1.7 1.7 0 0 0 1.38-.76v-.67h-1.36q-.9 0-.92.71m7.41 1.93c-1.25 0-2.01-.66-2.01-1.9v-2.82h-.95v-1.2h.95v-1.42h1.4v1.42h1.64v1.2h-1.63v2.63c0 .5.35.8.92.8q.4 0 .83-.13v1.21a3 3 0 0 1-1.15.21m4.52 0c-1.75 0-2.85-1.22-2.85-3.01 0-1.8 1.1-3.02 2.85-3.02s2.85 1.22 2.85 3.02c0 1.79-1.1 3.01-2.85 3.01m0-1.3c.84 0 1.42-.62 1.42-1.71 0-1.1-.58-1.72-1.41-1.72-.84 0-1.43.63-1.43 1.72s.6 1.71 1.43 1.71m3.97 1.19v-5.8h1.4v.82l.18.06c.3-.62.85-1 1.53-1q.25 0 .5.06v1.43q-.33-.12-.85-.13c-.6 0-1.12.38-1.36.89V20zm9.72.11a3.8 3.8 0 0 1-2.86-1.17l.96-1.07c.52.52 1.2.83 1.88.83.81 0 1.25-.38 1.25-.92 0-.49-.2-.77-.98-.98l-.87-.23c-1.2-.32-1.83-1.1-1.83-2.11 0-1.4.99-2.27 2.52-2.27a4 4 0 0 1 2.66 1.02l-.9 1.15a2.5 2.5 0 0 0-1.75-.76c-.63 0-1.03.26-1.03.74 0 .47.35.68.93.84l.98.28c1.24.35 1.81 1 1.81 2.18 0 1.59-1.28 2.47-2.77 2.47m6.24 0c-1.25 0-2.01-.66-2.01-1.9v-2.82h-.95v-1.2h.95v-1.42h1.4v1.42h1.63v1.2h-1.62v2.63c0 .5.35.8.92.8q.4 0 .83-.13v1.21a3 3 0 0 1-1.15.21m4.52 0c-1.75 0-2.85-1.22-2.85-3.01 0-1.8 1.1-3.02 2.85-3.02S140 15.3 140 17.1c0 1.79-1.1 3.01-2.85 3.01m0-1.3c.84 0 1.42-.62 1.42-1.71 0-1.1-.58-1.72-1.41-1.72-.84 0-1.43.63-1.43 1.72s.6 1.71 1.43 1.71m3.97 1.19v-5.8h1.4v.82l.18.06c.3-.62.85-1 1.53-1q.26 0 .5.06v1.43q-.33-.12-.85-.13c-.6 0-1.12.38-1.35.89V20zm7.05.11c-1.77 0-2.92-1.21-2.92-3 0-1.8 1.15-3.03 2.8-3.03 1.78 0 2.67 1.23 2.67 2.95v.5h-4.06c.15.94.7 1.3 1.51 1.3.6 0 1.04-.18 1.5-.57l.84 1.01c-.62.59-1.5.84-2.34.84m-.12-4.84q-1.07 0-1.34 1.11h2.62c-.1-.7-.55-1.11-1.28-1.11"/>
</svg>