<svg xmlns="http://www.w3.org/2000/svg" width="70" height="32" fill="#fff">
  <rect width="100%" height="100%" fill="#335fff" rx="4"/>
  <path d="M14.45 9.48q.8-.06 1.55.13a4 4 0 0 1 1.5.7v11.68a3.4 3.4 0 0 0-3.41-.47q-.68.26-1.36.77-.24.19-.55.23a1.2 1.2 0 0 1-1-.44 1 1 0 0 1-.18-.6v-9.86q0-.34.2-.6.5-.62 1.37-1.04a5 5 0 0 1 1.88-.5m4.05.79q.67-.46 1.48-.64.74-.18 1.52-.11.94.07 1.79.44.86.38 1.37.95l.14.14q.2.26.2.6v9.83a1 1 0 0 1-.63.94q-.27.12-.55.1-.31-.04-.55-.23-.67-.51-1.36-.77a3.4 3.4 0 0 0-3.41.48zM34.8 20v-7.7h2.53c2.53 0 4.06 1.17 4.06 3.85S39.86 20 37.33 20zm2.6-1.45c1.57 0 2.45-.75 2.45-2.4s-.88-2.4-2.45-2.4h-1.11v4.8zm7.57 1.56c-1.75 0-2.85-1.22-2.85-3.01 0-1.8 1.1-3.02 2.85-3.02s2.85 1.22 2.85 3.02c0 1.79-1.1 3.01-2.85 3.01m.01-1.3c.84 0 1.4-.62 1.4-1.71 0-1.1-.56-1.72-1.4-1.72s-1.43.63-1.43 1.72.6 1.71 1.43 1.71m6.51 1.3c-1.74 0-2.88-1.22-2.88-3.01 0-1.8 1.14-3.02 2.88-3.02.9 0 1.78.38 2.28 1.03l-.95.94c-.3-.38-.8-.67-1.36-.67-.84 0-1.42.63-1.42 1.72s.58 1.71 1.42 1.71c.57 0 1.05-.28 1.36-.67l.95.95a2.9 2.9 0 0 1-2.28 1.02m5.27 0a3.6 3.6 0 0 1-2.39-.9l.75-1c.46.4 1.01.69 1.64.69q.89 0 .91-.57c0-.35-.24-.47-.71-.57l-.74-.16c-1-.2-1.58-.71-1.58-1.66 0-1.14.82-1.86 2.15-1.86q1.27 0 2.2.8l-.79.97a2.2 2.2 0 0 0-1.43-.56c-.4 0-.77.13-.77.5 0 .27.18.45.74.57l.81.18c.87.18 1.52.63 1.52 1.6 0 1.23-.91 1.97-2.3 1.97"/>
</svg>