<svg xmlns="http://www.w3.org/2000/svg" width="87" height="32" fill="#fff">
  <rect width="100%" height="100%" fill="#ad4646" rx="4"/>
  <path fill="#f2c57e" d="m15.28 23.88-.8 3.2s7.28.2 10.32-2.28 2.28-2.32 2.28-2.32l-3.2-3.04z"/>
  <path fill="#bd704b" d="M17.44 24.32s.24 2.36 1.04 2.8c0 0-3.88.28-3.8-.76l.56-2.52z"/>
  <path fill="#f2c57e" d="M14.72 18.44s.72 1 .88 2.48c.16 1.52-1.6 2.76 1.64 3.36 2.92.52 9.2-2.2 7.16-4.24-1.28-1.28-2.16-2.32-1.6-4.8.6-2.48-2.84-4-2.84-4z"/>
  <path fill="#bd704b" d="M22.36 17.6s1.08 2.84 4.6 4.96l.28-.64s-2.96-.92-4.56-4.44-.4.12-.32.12M16.04 7.56s-2.04.88-1.12 7.2c.28 3.44-1.16 3.16-1.44 2.84-.32-.28.96-2.04.24-2.64s-1.6-.04-2.48-1.76c-1.12-2.24.2-1.32 1.24-3.24.76-1.4 1.32-2.2 1.96-2.12.52.08 1-.68 1.6-.28"/>
  <path fill="#f2c57e" d="M11.96 14.84s.08 1.48-.2 2.32c-.44 1.24.68 2.92 2.32 1.12s-2.12-3.44-2.12-3.44"/>
  <path fill="#f2c57e" d="M20.28 8s-3.16-1.6-5.68.2-.52 1.56-2.04 3.84a5.1 5.1 0 0 0 4.6 7.48c4.88.08 4.8-9.28 4.8-9.28S21.48 8.16 20.28 8"/>
  <path fill="#bd704b" d="M19.16 18.4s-1.52 1.36-1.44 2.28c.04.92 3.8.72.48 1.64-.92.24-.88 1.76-.16 2.04.68.28-2.76-.28-2.72-1.44s.52-3.16-.64-3.92c-.04 0 2.88.88 4.48-.6"/>
  <path fill="#ad4646" d="M15.28 22.84s3 1.44 6.08-.24c2.28-1.24 3-2.6 2.76-2.88 0 0 .56.04 1.08.84.4.6-.24 2.44-3.6 3.84-3.16 1.28-6 .48-6.56-.08-.52-.56.24-1.48.24-1.48"/>
  <path fill="#3f2418" d="M14.08 11.56a.36.36 0 0 1-.36-.36v-.84c0-.2.16-.36.36-.36s.36.16.36.36v.84c0 .2-.16.36-.36.36"/>
  <path fill="#f2c57e" d="M15 10.56s-2.64 1.88-3.64 2.28-.96 1.48.4 2.6 5.4-1.8 3.24-4.88"/>
  <path fill="#bd704b" d="M11.16 14.8s1 1.08.4 2.28c-.4.8 0 2.32 1.48 1.88 0 0-1.72.08-1.04-1.84.24-.68.24-1.76-.84-2.32m8.48-7.08s2.88 1.16 1.84 7.48c-.36 3.44 1.32 3.16 1.72 2.84.36-.28.4-1.4 1.24-1.96s2.8-2.36 1.8-4.12-2.04-1.4-2.68-2.56c-.6-1.04-1-1.2-1.72-1.2-.6.04-1.44-.88-2.2-.48"/>
  <path fill="#3f2418" d="M18.84 11.92a.4.4 0 0 1-.4-.4v-.96a.4.4 0 0 1 .8 0v.96q-.08.38-.4.4"/>
  <path fill="#bd704b" d="M18.2 9.96s-.88-.48-.16-.88c.92-.52 1.96.32 2.12.8 0 0-1.08-1-1.96-.52-.48.24 0 .6 0 .6m-3.8-.76a.3.3 0 0 0-.16-.16c-.12-.08-.32-.08-.48-.04s-.28.16-.4.24q.11-.31.4-.44.14-.05.28-.04.31.01.56.2c.16.12.24.32.24.52-.04.16-.12.32-.28.36-.04 0-.08.04-.08 0s.04-.08.04-.12q.06-.11 0-.28c-.04-.08-.04-.16-.12-.24M13 16.8s.88 2.96 4.16 2.24c3-.68 3.44-3.24 3.44-3.24.2.6-.64 4.08-4.72 3.76C12.92 19.32 13 16.8 13 16.8"/>
  <path fill="#bd704b" d="M13.64 18.2s-.12 1.16-1.8.56c0 0 .84.96 1.88-.08.48-.52-.08-.48-.08-.48M11 13.96c-.2-.12-.2-.44-.08-.64.16-.2.48-.36.72-.48a10 10 0 0 0 3.48-2.4s-2.8 1.96-4.28 2.48c-.76.28.16 1.04.16 1.04"/>
  <path fill="#ad4646" d="M10.68 13.36c-.44.44.28 1.76 1.16 2.16 1 .44 2.44-1.28 2.16-1.76-.32-.64-2.4-1.36-3.32-.4"/>
  <mask id="a" width="5" height="4" x="10" y="12" maskUnits="userSpaceOnUse">
    <path d="M10.68 13.36c-.44.44.28 1.76 1.16 2.16 1 .44 2.44-1.28 2.16-1.76-.32-.64-2.4-1.36-3.32-.4"/>
  </mask>
  <g mask="url(#a)">
    <path fill="#6a2524" d="M12.44 14.84c-.08-.12-.08-.32 0-.4q.06-.07.12-.08.13-.05.2-.04c.36-.04.76.12 1 .4.2.2.12.4-.08.52-.24.12-.56.16-.84.04a2 2 0 0 1-.4-.44m-.88.04c.04-.12.08-.28 0-.4q-.06-.07-.12-.08c-.04-.04-.12-.04-.16-.04q-.43-.04-.8.4c-.16.2-.08.4.08.52.2.12.44.16.64.04a.8.8 0 0 0 .36-.44"/>
  </g>
  <path fill="#ad4646" d="M18 28a12 12 0 0 1 0-24 12 12 0 0 1 0 24m0-22.4C12.28 5.6 7.6 10.28 7.6 16S12.28 26.4 18 26.4 28.4 21.72 28.4 16 23.72 5.6 18 5.6"/>
  <path fill="#bd704b" d="M14.6 7.96s3.64-1.52 6.28.8c0 0-.08-1.08-2.12-1.52-1.08-.24-3.48-.2-4.16.72m-.32 9.2c.13 0 .24-.07.24-.16q-.02-.15-.24-.16c-.13 0-.24.07-.24.16q.01.15.24.16m1.56.84c.13 0 .24-.07.24-.16q-.02-.15-.24-.16c-.13 0-.24.07-.24.16q.01.15.24.16m1.4-.04c.13 0 .24-.07.24-.16q-.02-.15-.24-.16c-.13 0-.24.07-.24.16q.02.15.24.16m-.68.72c.13 0 .24-.07.24-.16q-.02-.15-.24-.16c-.13 0-.24.07-.24.16q.02.15.24.16m-1.76-.44c.13 0 .24-.07.24-.16q-.01-.15-.24-.16c-.13 0-.24.07-.24.16q.01.15.24.16"/>
  <path d="m35.73 20-1.56-7.7h1.67l.98 5.87h.17l1.1-5.87h2.38l1.1 5.87h.17l.98-5.87h1.68L42.83 20h-2.37l-1.1-6.05h-.17L38.1 20zm10.93.11c-.96 0-1.83-.6-1.83-1.83 0-1.1.79-1.82 2.34-1.82h1.34v-.2c0-.64-.5-.85-1.03-.85-.65 0-1.21.27-1.8.7l-.64-1.1a4 4 0 0 1 2.51-.93c1.23 0 2.37.56 2.37 2.2V20h-1.4v-.66l-.18-.07c-.39.54-.92.84-1.68.84m-.43-1.93c0 .43.37.72.9.72a1.7 1.7 0 0 0 1.38-.76v-.67h-1.36q-.9 0-.92.71M51.4 20v-7.81h1.4V20zm2.85 0v-7.81h1.41V20zM58 22.21c-.4 0-.73-.09-1-.18v-1.28c.35.1.54.16.88.16.44 0 .85-.24 1.05-.81l.09-.25h-.37l-2.12-5.66h1.6l1.33 4h.17l1.32-4h1.6l-2.3 6.14c-.53 1.44-1.23 1.88-2.25 1.88m14.63-11.02q.22 0 .4.16.15.16.16.4 0 .24-.17.4-.15.15-.4.16h-3.56v7.88h7.88v-3.57q0-.22.16-.4.16-.16.4-.16t.4.17.16.4v3.75a1 1 0 0 1-.13.46 1 1 0 0 1-.34.34 1 1 0 0 1-.47.13h-8.25a1 1 0 0 1-.46-.13 1 1 0 0 1-.35-.34 1 1 0 0 1-.12-.46v-8.25q0-.26.12-.47.13-.22.35-.34a1 1 0 0 1 .47-.13zm4.87 0q.24 0 .4.16.15.16.16.4V14q0 .24-.16.4-.16.15-.4.16a.5.5 0 0 1-.4-.16.5.5 0 0 1-.16-.4v-.9l-3.54 3.55q-.16.16-.4.16a.5.5 0 0 1-.4-.16.5.5 0 0 1-.16-.4q0-.24.16-.4l3.54-3.54h-.89a.5.5 0 0 1-.4-.16.5.5 0 0 1-.16-.4q0-.24.16-.4.16-.15.4-.16z"/>
</svg>