<svg xmlns="http://www.w3.org/2000/svg" width="141" height="32" fill="#fff">
  <rect width="100%" height="100%" fill="#5865f2" rx="4"/>
  <path d="M23.54 10.91a13 13 0 0 0-3.28-1q-.02 0-.02.02c-.15.25-.3.57-.41.83a12 12 0 0 0-3.66 0 8 8 0 0 0-.43-.85h-.03a13 13 0 0 0-3.28 1.02 13.5 13.5 0 0 0-2.34 9.15 13 13 0 0 0 4.02 2.02l.03-.02a10 10 0 0 0 .82-1.37l-.03-.03a9 9 0 0 1-1.28-.64l.02-.04.28-.2h.02a9.5 9.5 0 0 0 8.07 0h.03l.27.24-.03.04a8 8 0 0 1-1.28.63v.04a11 11 0 0 0 .85 1.35h.03a13 13 0 0 0 4.02-2.06 13.4 13.4 0 0 0-2.39-9.13m-8.2 7.31c-.78 0-1.43-.72-1.43-1.61S14.55 15 15.35 15s1.45.73 1.43 1.6c0 .9-.63 1.62-1.43 1.62m5.32 0c-.79 0-1.43-.72-1.43-1.61S19.86 15 20.66 15c.81 0 1.45.73 1.44 1.6 0 .9-.63 1.62-1.44 1.62M34.8 20v-7.7h2.53c2.53 0 4.06 1.17 4.06 3.85S39.86 20 37.33 20zm2.6-1.45c1.57 0 2.45-.75 2.45-2.4s-.88-2.4-2.45-2.4h-1.11v4.8zM42.45 20v-5.8h1.4V20zm-.03-6.48v-1.47h1.47v1.47zm4.83 6.59a3.6 3.6 0 0 1-2.38-.9l.75-1c.46.4 1 .69 1.63.69q.9 0 .92-.57c0-.35-.24-.47-.72-.57l-.73-.16c-1-.2-1.59-.71-1.59-1.66 0-1.14.83-1.86 2.16-1.86q1.26 0 2.19.8l-.78.97a2.2 2.2 0 0 0-1.43-.56c-.4 0-.77.13-.77.5 0 .27.17.45.73.57l.82.18c.87.18 1.51.63 1.51 1.6 0 1.23-.9 1.97-2.3 1.97m5.9 0c-1.73 0-2.88-1.22-2.88-3.01 0-1.8 1.15-3.02 2.88-3.02.9 0 1.79.38 2.28 1.03l-.94.94c-.31-.38-.8-.67-1.37-.67-.83 0-1.42.63-1.42 1.72s.59 1.71 1.42 1.71c.57 0 1.06-.28 1.37-.67l.94.95a2.9 2.9 0 0 1-2.27 1.02m5.76 0c-1.75 0-2.85-1.22-2.85-3.01 0-1.8 1.1-3.02 2.85-3.02s2.85 1.22 2.85 3.02c0 1.79-1.1 3.01-2.85 3.01m.01-1.3c.84 0 1.41-.62 1.41-1.71 0-1.1-.57-1.72-1.4-1.72-.84 0-1.44.63-1.44 1.72s.6 1.71 1.43 1.71M62.88 20v-5.8h1.4v.82l.19.06c.3-.62.84-1 1.52-1q.27 0 .5.06v1.43q-.33-.12-.85-.13c-.6 0-1.12.38-1.35.89V20zm6.52.11c-1.35 0-2.41-1.03-2.41-3.01 0-1.96 1.16-3.02 2.82-3.02.52 0 1.05.13 1.4.32v-2.2h1.4V20h-1.4v-.81l-.19-.07c-.31.7-.9.99-1.62.99m.4-1.3c.55 0 1.14-.25 1.4-.78v-2.35a2.4 2.4 0 0 0-1.24-.3c-.86 0-1.54.54-1.54 1.72 0 1.06.47 1.71 1.38 1.71m9.42 1.3a3.8 3.8 0 0 1-2.86-1.17l.96-1.07c.52.52 1.2.83 1.88.83.81 0 1.25-.38 1.25-.92 0-.49-.2-.77-.97-.98l-.88-.23c-1.2-.32-1.83-1.1-1.83-2.11 0-1.4.99-2.27 2.52-2.27a4 4 0 0 1 2.66 1.02l-.9 1.15a2.5 2.5 0 0 0-1.75-.76c-.63 0-1.03.26-1.03.74 0 .47.35.68.93.84l.98.28c1.24.35 1.81 1 1.81 2.18 0 1.59-1.28 2.47-2.77 2.47m6.5 0c-1.76 0-2.92-1.21-2.92-3 0-1.8 1.16-3.03 2.8-3.03 1.79 0 2.68 1.23 2.68 2.95v.5h-4.06c.14.94.7 1.3 1.5 1.3.6 0 1.04-.18 1.5-.57l.85 1.01a3.4 3.4 0 0 1-2.34.84m-.11-4.84q-1.06 0-1.35 1.11h2.62c-.09-.7-.55-1.11-1.27-1.11M89.37 20v-5.8h1.4v.82l.19.06c.3-.62.84-1 1.52-1q.27 0 .5.06v1.43q-.33-.12-.85-.13c-.6 0-1.12.38-1.35.89V20zm6.26 0-2.18-5.8h1.6l1.33 4h.17l1.32-4h1.6L97.3 20zm7.16.11c-1.78 0-2.93-1.21-2.93-3 0-1.8 1.15-3.03 2.8-3.03 1.79 0 2.68 1.23 2.68 2.95v.5h-4.06c.14.94.7 1.3 1.5 1.3.6 0 1.04-.18 1.5-.57l.85 1.01a3.4 3.4 0 0 1-2.34.84m-.13-4.84q-1.06 0-1.34 1.11h2.62c-.09-.7-.55-1.11-1.28-1.11m3.77 4.73v-5.8h1.4v.82l.18.06c.31-.62.85-1 1.53-1q.26 0 .5.06v1.43q-.33-.12-.85-.13c-.6 0-1.12.38-1.35.89V20zm18.2-8.81q.22 0 .4.16.16.16.16.4t-.17.4q-.16.15-.4.16h-3.56v7.88h7.88v-3.57q0-.22.16-.4.16-.16.4-.16t.4.17.16.4v3.75a1 1 0 0 1-.13.46 1 1 0 0 1-.34.34 1 1 0 0 1-.47.13h-8.25a1 1 0 0 1-.46-.13 1 1 0 0 1-.35-.34 1 1 0 0 1-.12-.46v-8.25q0-.26.12-.47.13-.22.35-.34a1 1 0 0 1 .47-.13zm4.87 0q.24 0 .4.16t.16.4V14q0 .24-.16.4-.16.15-.4.16a.5.5 0 0 1-.4-.16.5.5 0 0 1-.16-.4v-.9l-3.54 3.55q-.16.16-.4.16a.5.5 0 0 1-.4-.16.5.5 0 0 1-.16-.4q0-.24.16-.4l3.54-3.54h-.89a.5.5 0 0 1-.4-.16.5.5 0 0 1-.16-.4q0-.24.16-.4.16-.15.4-.16z"/>
</svg>