<svg xmlns="http://www.w3.org/2000/svg" width="101" height="32" fill="#fff">
  <rect width="100%" height="100%" fill="#000" rx="4"/>
  <path d="M18 8.2a8 8 0 0 0-2.53 15.59c.4.07.55-.17.55-.39L16 22.04c-2.23.49-2.7-1.07-2.7-1.07-.36-.92-.89-1.17-.89-1.17-.72-.5.06-.49.06-.49.8.06 1.22.83 1.22.83.72 1.22 1.88.87 2.33.66.08-.51.28-.87.51-1.07-1.78-.2-3.64-.88-3.64-3.95q.02-1.3.82-2.15c-.1-.2-.36-1.01.07-2.11 0 0 .67-.22 2.2.82a7.7 7.7 0 0 1 4 0c1.52-1.04 2.19-.82 2.19-.82a3 3 0 0 1 .08 2.11c.5.56.82 1.28.82 2.15 0 3.07-1.87 3.75-3.65 3.95.28.24.54.73.54 1.48l-.01 2.19c0 .2.14.46.55.38A8 8 0 0 0 18 8.2m20.17 11.91c-2.05 0-3.84-1.28-3.84-3.96 0-2.46 1.7-3.96 3.78-3.96 1.2 0 2.31.5 2.98 1.45l-1.02.98c-.58-.7-1.14-.98-1.91-.98-1.34 0-2.3.88-2.3 2.51 0 1.67 1 2.53 2.3 2.53q.88-.01 1.43-.35v-1.06h-1.54v-1.36h3.03v3.19a4.6 4.6 0 0 1-2.91 1.01m4.18-.11v-5.8h1.41V20zm-.03-6.48v-1.47h1.47v1.47zm5.27 6.59c-1.26 0-2.02-.66-2.02-1.9v-2.82h-.94v-1.2h.94v-1.42h1.41v1.42h1.63v1.2h-1.63v2.63c0 .5.35.8.93.8q.39 0 .82-.13v1.21c-.3.13-.73.21-1.14.21m2.19-.11v-7.7h1.5v3.02h3.34V12.3h1.5V20h-1.5v-3.22h-3.35V20zm9.66.11c-1.17 0-1.89-.87-1.89-2.14v-3.78h1.41v3.28c0 .99.4 1.34 1.03 1.34.52 0 1.04-.33 1.26-.78V14.2h1.4V20h-1.4v-.82l-.18-.07c-.32.6-.8 1-1.63 1m7.81 0c-.8 0-1.24-.26-1.56-.66l-.18.07V20h-1.4v-7.81h1.4v2.83l.18.06c.29-.6.81-1 1.68-1 1.39 0 2.36 1.1 2.36 2.9 0 2.02-1.08 3.13-2.48 3.13m-.33-1.3c.75 0 1.38-.65 1.38-1.82 0-1.18-.63-1.61-1.39-1.61-.63 0-1.13.33-1.4.77v1.98c.28.36.67.68 1.41.68m17.71-7.62q.22 0 .4.16.15.16.16.4 0 .24-.17.4-.15.15-.4.16h-3.56v7.88h7.88v-3.57q0-.22.16-.4.16-.16.4-.16t.4.17.16.4v3.75a1 1 0 0 1-.13.46 1 1 0 0 1-.34.34 1 1 0 0 1-.47.13h-8.25a1 1 0 0 1-.46-.13 1 1 0 0 1-.35-.34 1 1 0 0 1-.12-.46v-8.25q0-.26.12-.47.13-.22.35-.34a1 1 0 0 1 .47-.13zm4.87 0q.24 0 .4.16.15.16.16.4V14q0 .24-.16.4-.16.15-.4.16a.5.5 0 0 1-.4-.16.5.5 0 0 1-.16-.4v-.9l-3.54 3.55q-.16.16-.4.16a.5.5 0 0 1-.4-.16.5.5 0 0 1-.16-.4q0-.24.16-.4l3.54-3.54h-.89a.5.5 0 0 1-.4-.16.5.5 0 0 1-.16-.4q0-.24.16-.4.16-.15.4-.16z"/>
</svg>