<svg xmlns="http://www.w3.org/2000/svg" width="129" height="32" fill="#fff">
  <rect width="100%" height="100%" fill="#000" rx="4"/>
  <path fill="#fff" d="M18 8a8 8 0 0 0-2.53 15.59c.4.08.55-.17.55-.38L16 21.85c-2.23.48-2.7-1.08-2.7-1.08-.36-.92-.89-1.17-.89-1.17-.72-.5.06-.48.06-.48.8.05 1.22.82 1.22.82.72 1.22 1.88.87 2.33.67.08-.52.28-.87.51-1.07-1.78-.2-3.64-.9-3.64-3.96q.02-1.3.82-2.14a2.8 2.8 0 0 1 .07-2.12s.67-.22 2.2.82a7.7 7.7 0 0 1 4 0c1.52-1.04 2.19-.82 2.19-.82.43 1.1.16 1.91.08 2.12.5.56.82 1.27.82 2.14 0 3.08-1.87 3.75-3.65 3.95.28.24.54.73.54 1.48l-.01 2.19c0 .2.14.46.55.38A8 8 0 0 0 18 8m20.17 11.91c-2.05 0-3.84-1.27-3.84-3.96 0-2.46 1.7-3.96 3.78-3.96 1.2 0 2.31.5 2.98 1.45l-1.02.98c-.58-.7-1.14-.98-1.91-.98-1.34 0-2.3.88-2.3 2.51 0 1.67 1 2.53 2.3 2.53q.88-.01 1.43-.35v-1.06h-1.54v-1.36h3.03v3.19a4.6 4.6 0 0 1-2.91 1.01m4.18-.1v-5.82h1.41v5.81zm-.03-6.49v-1.47h1.47v1.47zm5.27 6.6c-1.26 0-2.02-.67-2.02-1.91v-2.82h-.94V14h.94v-1.42h1.41V14h1.63v1.2h-1.63v2.63c0 .5.35.8.93.8q.39 0 .82-.13v1.21c-.3.13-.73.21-1.14.21m2.19-.12v-7.7h1.5v3.03h3.34V12.1h1.5v7.7h-1.5v-3.22h-3.35v3.22zm9.66.11c-1.17 0-1.89-.87-1.89-2.14v-3.78h1.41v3.28c0 1 .4 1.34 1.03 1.34.52 0 1.04-.33 1.26-.78V14h1.4v5.81h-1.4v-.82l-.18-.07c-.32.6-.8 1-1.63 1m7.81 0c-.8 0-1.24-.26-1.56-.66l-.18.07v.48h-1.4V12h1.4v2.82l.18.06c.29-.6.81-1 1.68-1 1.39 0 2.36 1.1 2.36 2.9 0 2.02-1.08 3.13-2.48 3.13m-.33-1.3c.75 0 1.38-.65 1.38-1.82 0-1.18-.63-1.6-1.39-1.6-.63 0-1.13.32-1.4.76v1.98c.28.36.67.68 1.41.68m6.75 1.2v-7.7h3.05c1.61 0 2.69.8 2.69 2.36 0 1.13-.64 1.88-1.52 2.2v.14l1.82 3h-1.74l-1.67-2.93h-1.14v2.92zm1.5-4.36h1.55c.7 0 1.17-.31 1.17-.97s-.47-.93-1.17-.93h-1.56zm7.95 4.46c-1.78 0-2.93-1.2-2.93-3s1.15-3.03 2.8-3.03c1.79 0 2.68 1.24 2.68 2.95v.5H81.6c.14.94.7 1.3 1.5 1.3.6 0 1.04-.18 1.5-.57l.85 1.02c-.63.58-1.5.83-2.34.83m-.13-4.84q-1.06 0-1.34 1.11h2.62c-.09-.7-.55-1.1-1.28-1.1m3.76 4.73V12h1.4v7.8zm5.45.11c-1.77 0-2.92-1.2-2.92-3s1.15-3.03 2.8-3.03c1.78 0 2.68 1.24 2.68 2.95v.5H90.7c.14.94.69 1.3 1.5 1.3.6 0 1.04-.18 1.5-.57l.85 1.02c-.63.58-1.5.83-2.35.83m-.12-4.84q-1.06 0-1.34 1.11h2.62c-.09-.7-.55-1.1-1.28-1.1m5.24 4.84c-.96 0-1.83-.6-1.83-1.82 0-1.1.79-1.83 2.34-1.83h1.34v-.2c0-.64-.5-.85-1.03-.85-.65 0-1.21.27-1.8.7l-.64-1.1a4 4 0 0 1 2.51-.93c1.23 0 2.37.56 2.37 2.2v3.72h-1.4v-.66L99 19.1c-.39.53-.92.83-1.68.83M96.9 18c0 .43.37.71.9.71a1.7 1.7 0 0 0 1.38-.76v-.67h-1.36q-.9 0-.92.72m7.08 1.92a3.6 3.6 0 0 1-2.38-.89l.74-1.01c.47.4 1.02.7 1.64.7q.9 0 .92-.58c0-.35-.25-.47-.72-.57l-.74-.16c-1-.2-1.58-.71-1.58-1.66 0-1.14.83-1.86 2.16-1.86q1.26 0 2.18.8l-.78.97a2.2 2.2 0 0 0-1.43-.56c-.4 0-.77.14-.77.5 0 .27.18.45.74.57l.81.18c.87.18 1.52.63 1.52 1.6 0 1.23-.91 1.97-2.3 1.97m5.95 0c-1.77 0-2.93-1.2-2.93-3s1.16-3.03 2.8-3.03c1.79 0 2.68 1.24 2.68 2.95v.5h-4.06c.14.94.7 1.3 1.5 1.3.6 0 1.04-.18 1.5-.57l.85 1.02c-.63.58-1.5.83-2.34.83m-.12-4.84q-1.07 0-1.34 1.11h2.61c-.08-.7-.55-1.1-1.27-1.1m5.71 4.84a3.6 3.6 0 0 1-2.39-.89l.75-1.01c.46.4 1.01.7 1.64.7q.89 0 .91-.58c0-.35-.24-.47-.71-.57l-.74-.16c-1-.2-1.58-.71-1.58-1.66 0-1.14.82-1.86 2.15-1.86q1.27 0 2.2.8l-.79.97a2.2 2.2 0 0 0-1.43-.56c-.4 0-.77.14-.77.5 0 .27.18.45.74.57l.81.18c.87.18 1.52.63 1.52 1.6 0 1.23-.91 1.97-2.31 1.97"/>
</svg>